<svg xmlns="http://www.w3.org/2000/svg" width="99.28" height="18.292" viewBox="0 0 99.28 18.292">
  <g id="Group_24" data-name="Group 24" transform="translate(-78.537 -372.356)">
    <path id="Path_9" data-name="Path 9" d="M16.625-33.676c-.169-1.039-.435-2.392-.6-3.407-.145-1.039-.58-1.4-1.595-1.4H2.781c-1.015,0-1.45.362-1.619,1.4-.169,1.015-.411,2.368-.6,3.407a.907.907,0,0,0,.918,1.184c1.111,0,1.643-1.184,2.126-2.078a2.82,2.82,0,0,1,2.706-1.619v9.181c0,1.691-.024,2.489-.459,3.093-.628.87-.821,1.184-.773,1.619.024.483.362.725,1.111.725H11c.749,0,1.087-.242,1.136-.725.024-.435-.145-.749-.773-1.619-.459-.6-.483-1.4-.483-3.093v-9.181A2.888,2.888,0,0,1,13.6-34.57c.459.894,1.015,2.078,2.126,2.078C16.359-32.492,16.746-32.927,16.625-33.676Zm6.451,9.761c-.435-.6-.459-1.4-.459-3.093v-4.88c0-1.353-.725-2.005-2.1-1.619-.266.072-1.691.507-2.44.749-.725.242-1.087.556-1.111,1.063-.048.435.145.749.773,1.619.435.6.459,1.4.459,3.068,0,1.691-.024,2.489-.459,3.093-.628.87-.821,1.184-.773,1.619.024.507.362.725,1.111.725h4.663c.725,0,1.063-.217,1.111-.725C23.873-22.731,23.7-23.046,23.076-23.915Zm-3.02-10.727a2.632,2.632,0,0,0,2.754-2.513,2.629,2.629,0,0,0-2.754-2.489,2.622,2.622,0,0,0-2.73,2.489A2.626,2.626,0,0,0,20.056-34.643ZM37.306-23.915c-.435-.6-.459-1.4-.459-3.093v-9.93c0-1.377-.725-2.03-2.1-1.643-.266.1-1.691.507-2.416.749-.749.242-1.087.556-1.136,1.063-.024.435.145.749.773,1.619.411.556.459,1.281.459,2.658A4.3,4.3,0,0,0,29.551-33.6c-3.5-.121-5.629,2.489-5.629,6.113s2.126,6.233,5.629,6.137a4.468,4.468,0,0,0,2.972-1.232c.217.677.773,1.015,1.812,1.015h2.634c.749,0,1.087-.217,1.111-.725C38.128-22.731,37.935-23.046,37.306-23.915Zm-6.668.121c-1.5,0-2.247-1.57-2.247-3.7s.749-3.672,2.247-3.672c1.474,0,2.223,1.546,2.223,3.672S32.112-23.795,30.638-23.795Zm18.386-1.353c-1.957,1.909-5.992,1.425-6.572-1.667H48.42c1.546,0,1.836-.628,1.667-2.247A5.25,5.25,0,0,0,44.651-33.6c-3.624-.145-6.837,2.126-6.717,6.282.145,4.059,3.479,5.968,6.837,5.968A5.29,5.29,0,0,0,49.991-24.4C50.4-25.293,49.725-25.824,49.024-25.148Zm-4.736-6.5a1.738,1.738,0,0,1,1.933,1.57c.193.725-.072,1.136-.652,1.136H42.743c-.217,0-.338-.242-.266-.507C42.694-30.463,43.2-31.574,44.289-31.647Zm12.274,7.731c-.435-.6-.459-1.4-.459-3.093v-9.93c0-1.377-.725-2.03-2.1-1.643-.266.1-1.691.507-2.416.749-.749.242-1.087.556-1.136,1.063-.024.435.145.749.773,1.619.435.6.459,1.4.459,3.093v5.05c0,1.691-.024,2.489-.459,3.093-.628.87-.8,1.184-.773,1.619.048.507.387.725,1.136.725h4.639c.749,0,1.087-.217,1.111-.725C57.384-22.731,57.191-23.046,56.562-23.915Zm13-.532C69.029-25,69.1-26.428,69.1-28.1v-.483c0-3.527-1.86-5.025-5.195-5.025-2.054,0-4.518.435-5.219,2.271a1.508,1.508,0,0,0,.846,2.054c1.063.362,2.005.024,2.464-1.45a1.374,1.374,0,0,1,1.667-1.015c.966.145,1.039,1.208,1.039,2.561v.338c-4.228,0-7.176.942-7.176,4.156,0,1.981,1.546,3.334,4.156,3.334A3.442,3.442,0,0,0,64.874-22.9c.387,1.039,1.3,1.546,3.093,1.546,1.353,0,2.682-.8,2.73-1.836C70.745-23.915,70.165-23.819,69.561-24.447Zm15.221.532c-.435-.6-.459-1.4-.459-3.093v-2.609c0-1.86-1.087-3.987-4.252-3.987a4.9,4.9,0,0,0-3.5,1.546c-.072-1.232-.773-1.812-2.1-1.45-.266.072-1.691.507-2.416.749-.749.242-1.087.556-1.136,1.063-.024.435.145.749.773,1.619.435.6.483,1.5.483,3.141,0,1.619-.048,2.416-.483,3.02-.628.87-.8,1.184-.773,1.619.048.507.387.725,1.136.725h4.639c.749,0,1.087-.217,1.111-.725.048-.435-.145-.749-.773-1.619-.435-.6-.459-1.4-.459-3.093v-1.715c0-1.474.556-2.319,1.643-2.319,1.74,0,1.715,2.126,1.715,3.793v.242c0,1.691-.024,2.489-.459,3.093-.628.87-.821,1.184-.8,1.619.048.507.387.725,1.136.725h4.639c.749,0,1.087-.217,1.136-.725C85.6-22.731,85.41-23.046,84.782-23.915Zm14.255,0c-.435-.6-.459-1.4-.459-3.093v-9.93c0-1.377-.725-2.03-2.1-1.643-.266.1-1.691.507-2.416.749-.749.242-1.087.556-1.136,1.063-.024.435.145.749.773,1.619.411.556.459,1.281.459,2.658A4.3,4.3,0,0,0,91.281-33.6c-3.5-.121-5.629,2.489-5.629,6.113s2.126,6.233,5.629,6.137a4.468,4.468,0,0,0,2.972-1.232c.217.677.773,1.015,1.812,1.015H98.7c.749,0,1.087-.217,1.111-.725C99.859-22.731,99.665-23.046,99.037-23.915Zm-6.668.121c-1.5,0-2.247-1.57-2.247-3.7s.749-3.672,2.247-3.672c1.474,0,2.223,1.546,2.223,3.672S93.842-23.795,92.369-23.795Z" transform="translate(78 412)" fill="#382b32"/>
    <circle id="Ellipse_1" data-name="Ellipse 1" cx="1.954" cy="1.954" r="1.954" transform="translate(140.381 373.195)" fill="#382b32"/>
  </g>
</svg>
