<svg width="500" height="750" viewBox="0 0 500 750" fill="none" xmlns="http://www.w3.org/2000/svg">
<rect width="500" height="750" fill="#E1DDFF"/>
<path d="M154.831 357.151C154.353 354.214 153.601 350.39 153.135 347.521C152.725 344.584 151.495 343.563 148.626 343.563H115.696C112.827 343.563 111.598 344.586 111.12 347.521C110.642 350.39 109.958 354.214 109.424 357.151C109.296 357.549 109.266 357.971 109.338 358.382C109.41 358.793 109.582 359.18 109.837 359.51C110.093 359.84 110.426 360.102 110.806 360.275C111.186 360.447 111.602 360.524 112.019 360.498C115.159 360.498 116.663 357.151 118.029 354.624C118.703 353.186 119.791 351.982 121.154 351.167C122.517 350.351 124.092 349.962 125.678 350.048V376C125.678 380.781 125.61 383.036 124.38 384.744C122.605 387.203 122.06 388.091 122.195 389.32C122.263 390.686 123.219 391.37 125.336 391.37H138.93C141.047 391.37 142.003 390.686 142.141 389.32C142.209 388.091 141.731 387.203 139.956 384.744C138.659 383.048 138.591 380.786 138.591 376V350.048C140.179 349.979 141.752 350.376 143.118 351.189C144.484 352.002 145.583 353.196 146.28 354.624C147.577 357.151 149.149 360.498 152.289 360.498C154.079 360.498 155.173 359.269 154.831 357.151ZM173.066 384.744C171.837 383.048 171.769 380.786 171.769 376V362.206C171.769 358.381 169.719 356.538 165.832 357.629C165.081 357.833 161.052 359.062 158.935 359.746C156.886 360.431 155.862 361.318 155.795 362.751C155.659 363.981 156.204 364.869 157.98 367.328C159.209 369.024 159.277 371.285 159.277 376C159.277 380.781 159.209 383.036 157.98 384.744C156.204 387.203 155.659 388.091 155.795 389.32C155.862 390.754 156.818 391.37 158.935 391.37H172.116C174.166 391.37 175.121 390.756 175.257 389.32C175.319 388.091 174.83 387.2 173.066 384.744V384.744ZM164.529 354.421C165.507 354.467 166.485 354.32 167.406 353.988C168.327 353.656 169.173 353.145 169.896 352.485C170.62 351.825 171.206 351.029 171.62 350.142C172.035 349.255 172.271 348.295 172.314 347.317C172.212 345.353 171.335 343.509 169.876 342.19C168.416 340.871 166.494 340.185 164.529 340.281C162.575 340.198 160.667 340.891 159.221 342.209C157.776 343.527 156.91 345.363 156.812 347.317C156.896 349.281 157.755 351.132 159.202 352.463C160.649 353.795 162.565 354.498 164.529 354.418V354.421ZM213.292 384.744C212.062 383.048 211.994 380.786 211.994 376V347.93C211.994 344.038 209.945 342.192 206.058 343.286C205.306 343.569 201.278 344.719 199.228 345.403C197.111 346.087 196.156 346.975 196.017 348.408C195.949 349.638 196.427 350.525 198.202 352.985C199.364 354.556 199.5 356.606 199.5 360.498C197.27 358.486 194.374 357.37 191.37 357.366C181.476 357.024 175.458 364.402 175.458 374.646C175.458 384.891 181.467 392.266 191.37 391.994C194.505 391.917 197.5 390.676 199.771 388.512C200.384 390.426 201.956 391.381 204.893 391.381H212.339C214.456 391.381 215.412 390.768 215.479 389.332C215.615 388.091 215.07 387.2 213.292 384.744ZM194.442 385.086C190.202 385.086 188.091 380.648 188.091 374.627C188.091 368.606 190.208 364.247 194.442 364.247C198.609 364.247 200.726 368.617 200.726 374.627C200.726 380.636 198.609 385.083 194.442 385.083V385.086ZM246.416 381.261C240.884 386.658 229.478 385.289 227.838 376.549H244.709C249.079 376.549 249.899 374.774 249.421 370.197C248.923 366.526 247.07 363.175 244.227 360.801C241.383 358.426 237.755 357.201 234.054 357.366C223.81 356.956 214.728 363.376 215.067 375.124C215.477 386.598 224.901 391.994 234.394 391.994C237.439 392.237 240.486 391.541 243.124 389.999C245.763 388.458 247.865 386.145 249.149 383.373C250.306 380.848 248.397 379.347 246.416 381.258V381.261ZM233.028 362.887C233.68 362.811 234.34 362.866 234.97 363.049C235.6 363.232 236.187 363.539 236.697 363.953C237.206 364.367 237.627 364.878 237.936 365.457C238.244 366.037 238.433 366.672 238.492 367.325C239.038 369.374 238.289 370.536 236.649 370.536H228.661C228.047 370.536 227.705 369.852 227.909 369.103C228.522 366.234 229.953 363.093 233.031 362.887H233.028ZM267.724 384.741C266.495 383.045 266.427 380.783 266.427 375.998V347.928C266.427 344.035 264.377 342.189 260.491 343.283C259.739 343.566 255.71 344.716 253.661 345.4C251.544 346.085 250.588 346.972 250.45 348.405C250.382 349.635 250.86 350.523 252.635 352.982C253.865 354.678 253.932 356.939 253.932 361.725V376C253.932 380.781 253.865 383.036 252.635 384.744C250.86 387.203 250.373 388.091 250.45 389.32C250.585 390.754 251.544 391.37 253.661 391.37H266.774C268.892 391.37 269.847 390.756 269.915 389.32C270.048 388.091 269.502 387.2 267.724 384.744V384.741ZM304.473 383.237C302.966 381.677 303.167 377.64 303.167 372.914V371.548C303.167 361.578 297.909 357.344 288.481 357.344C282.675 357.344 275.71 358.573 273.728 363.763C273.478 364.298 273.342 364.879 273.329 365.469C273.315 366.059 273.424 366.646 273.649 367.192C273.873 367.738 274.209 368.231 274.635 368.64C275.06 369.049 275.566 369.366 276.12 369.57C279.125 370.593 281.788 369.637 283.085 365.471C283.204 364.972 283.421 364.501 283.722 364.086C284.024 363.672 284.405 363.321 284.843 363.054C285.281 362.787 285.768 362.61 286.275 362.532C286.782 362.455 287.299 362.478 287.797 362.601C290.528 363.011 290.734 366.016 290.734 369.841V370.796C278.783 370.796 270.449 373.459 270.449 382.545C270.449 388.144 274.82 391.969 282.197 391.969C283.955 392.13 285.723 391.809 287.313 391.042C288.902 390.274 290.253 389.089 291.221 387.613C292.315 390.55 294.895 391.983 299.964 391.983C303.789 391.983 307.545 389.722 307.681 386.793C307.817 384.744 306.177 385.015 304.47 383.24L304.473 383.237ZM347.499 384.741C346.27 383.045 346.202 380.783 346.202 375.998V368.623C346.202 363.365 343.129 357.352 334.182 357.352C332.324 357.38 330.491 357.781 328.791 358.532C327.091 359.282 325.56 360.368 324.288 361.722C324.085 358.24 322.103 356.6 318.352 357.624C317.6 357.827 313.572 359.057 311.523 359.741C309.405 360.425 308.45 361.312 308.311 362.746C308.244 363.975 308.721 364.863 310.496 367.322C311.726 369.018 311.862 371.562 311.862 376.201C311.862 380.778 311.726 383.031 310.496 384.738C308.721 387.197 308.235 388.085 308.311 389.315C308.447 390.748 309.405 391.364 311.523 391.364H324.636C326.753 391.364 327.709 390.751 327.777 389.315C327.912 388.085 327.367 387.197 325.592 384.738C324.362 383.042 324.294 380.781 324.294 375.995V371.147C324.294 366.98 325.866 364.592 328.939 364.592C333.857 364.592 333.786 370.601 333.786 375.314V375.998C333.786 380.778 333.719 383.034 332.489 384.741C330.714 387.2 330.168 388.088 330.228 389.318C330.363 390.751 331.321 391.367 333.439 391.367H346.552C348.67 391.367 349.625 390.754 349.763 389.318C349.809 388.091 349.272 387.2 347.496 384.744L347.499 384.741ZM387.795 384.741C386.566 383.045 386.498 380.783 386.498 375.998V347.928C386.498 344.035 384.448 342.189 380.561 343.283C379.809 343.566 375.781 344.716 373.732 345.4C371.615 346.085 370.659 346.972 370.521 348.405C370.453 349.635 370.931 350.523 372.706 352.982C373.868 354.554 374.003 356.603 374.003 360.496C371.772 358.483 368.873 357.368 365.868 357.366C355.974 357.024 349.956 364.402 349.956 374.646C349.956 384.891 355.965 392.266 365.868 391.994C369.003 391.917 371.998 390.676 374.269 388.512C374.882 390.426 376.454 391.381 379.391 391.381H386.84C388.957 391.381 389.912 390.768 389.98 389.332C390.116 388.091 389.568 387.2 387.792 384.744L387.795 384.741ZM368.946 385.083C364.706 385.083 362.594 380.645 362.594 374.624C362.594 368.603 364.712 364.244 368.946 364.244C373.113 364.244 375.23 368.614 375.23 374.624C375.23 380.634 373.107 385.083 368.943 385.083H368.946Z" fill="#382B32" fill-opacity="0.44"/>
<path d="M289.697 353.7C292.747 353.7 295.22 351.227 295.22 348.176C295.22 345.126 292.747 342.653 289.697 342.653C286.646 342.653 284.173 345.126 284.173 348.176C284.173 351.227 286.646 353.7 289.697 353.7Z" fill="#382B32" fill-opacity="0.44"/>
</svg>
