<svg xmlns="http://www.w3.org/2000/svg" xmlns:xlink="http://www.w3.org/1999/xlink" width="328.537" height="314.679" viewBox="0 0 328.537 314.679">
  <defs>
    <clipPath id="clip-path">
      <path id="Path_5" data-name="Path 5" d="M203.946,227.686V360.3H131.5V227.686h72.45"/>
    </clipPath>
    <clipPath id="clip-path-2">
      <path id="Path_8" data-name="Path 8" d="M274.457,107.493c5.643,0,13.169,2.414,19.406,12.811,11.645,19.406,10.351,36.378,7.116,51.827s-5.175,30.4-5.175,30.4h82.154l-.02.1a19.366,19.366,0,0,1-1.882,38.641h2.734a19.368,19.368,0,1,1,0,38.735h-4.966a19.369,19.369,0,0,1-7.487,37.233h-5.111a19.355,19.355,0,0,1-11.874,34.65H244.7s-16.079-4.549-27.169-10.813v-99.82c6.35-1.185,12.71-4.48,16.172-13.571,5.175-13.583,34.286-61.453,35.58-70.509s-3.194-47.869-3.194-47.869a19.728,19.728,0,0,1,8.369-1.814"/>
    </clipPath>
    <clipPath id="clip-path-3">
      <path id="Path_13" data-name="Path 13" d="M193.946,217.686V350.3H121.5V217.686h72.45" fill="#fff"/>
    </clipPath>
    <clipPath id="clip-path-4">
      <path id="Path_16" data-name="Path 16" d="M264.457,97.493c5.643,0,13.169,2.414,19.406,12.811,11.645,19.406,10.351,36.378,7.116,51.827s-5.175,30.4-5.175,30.4h82.154l-.02.1a19.366,19.366,0,0,1-1.882,38.641h2.734a19.368,19.368,0,1,1,0,38.735h-4.966a19.369,19.369,0,0,1-7.487,37.233h-5.111a19.355,19.355,0,0,1-11.874,34.65H234.7s-16.079-4.549-27.169-10.813v-99.82c6.35-1.185,12.71-4.48,16.172-13.571,5.175-13.583,34.286-61.453,35.58-70.509s-3.194-47.869-3.194-47.869a19.728,19.728,0,0,1,8.369-1.814" fill="#fff"/>
    </clipPath>
  </defs>
  <g id="OBJECTS" transform="translate(-95.559 -71.556)">
    <g id="Group_5" data-name="Group 5" opacity="0.1" style="mix-blend-mode: multiply;isolation: isolate">
      <path id="Path_1" data-name="Path 1" d="M131.5,386.235A25.966,25.966,0,0,1,105.559,360.3V227.685A25.967,25.967,0,0,1,131.5,201.748h72.45a25.788,25.788,0,0,1,11.97,2.931c3.128-6.042,7.01-13.127,11.372-21.089,3.916-7.147,13.8-25.185,16.325-31.122,0-5.241-1.138-21.561-3.291-40.184A26.085,26.085,0,0,1,254.1,86.307a45.768,45.768,0,0,1,20.359-4.751c7.94,0,27.892,2.478,41.647,25.4,16.189,26.982,14.187,51.308,10.439,69.639h51.415a25.991,25.991,0,0,1,5.842.666A45.311,45.311,0,0,1,418.252,238.4a45.248,45.248,0,0,1-6.963,53.785,45.6,45.6,0,0,1,.355,5.685,45.124,45.124,0,0,1-16.993,35.369,45.357,45.357,0,0,1-45.3,44.586H244.7a25.9,25.9,0,0,1-7.072-.984c-.308-.087-4.941-1.4-11.193-3.63a25.955,25.955,0,0,1-22.488,13.023Z"/>
      <path id="Path_2" data-name="Path 2" d="M411.1,260.638a32.166,32.166,0,0,0-7.932-21.18A32.291,32.291,0,0,0,381.2,190.01a12.918,12.918,0,0,0-3.243-.413h-67.1c.761-4.505,1.7-9.647,2.78-14.815,3.581-17.1,5.349-37.744-8.685-61.134-9.968-16.611-23.388-19.091-30.5-19.092a32.655,32.655,0,0,0-14.35,3.279,12.938,12.938,0,0,0-6.871,12.957c2.03,17.56,3.794,39.222,3.273,44.273-1.41,4.823-11.661,23.53-17.82,34.772-7.772,14.183-14.482,26.433-17.075,33.243-1.178,3.091-2.613,4.345-4.731,5.025v-.42a12.937,12.937,0,0,0-12.937-12.937H131.5a12.937,12.937,0,0,0-12.937,12.937V360.3A12.938,12.938,0,0,0,131.5,373.235h72.45A12.938,12.938,0,0,0,216.883,360.3v-5.014a177.168,177.168,0,0,0,24.3,9.052,12.893,12.893,0,0,0,3.52.49H349.352a32.346,32.346,0,0,0,31.765-38.232A32.338,32.338,0,0,0,396.9,287.377,32.3,32.3,0,0,0,411.1,260.638Z"/>
      <g id="Group_2" data-name="Group 2">
        <path id="Path_3" data-name="Path 3" d="M203.946,227.686V360.3H131.5V227.686h72.45"/>
        <g id="Group_1" data-name="Group 1" clip-path="url(#clip-path)">
          <path id="Path_4" data-name="Path 4" d="M188.68,206.3c8.692,36.724,26.572,147.546-76.054,154s61.261,44.871,93.059,31.877S229.278,210.819,221.234,206.3,188.68,206.3,188.68,206.3Z" opacity="0.05"/>
        </g>
      </g>
      <g id="Group_4" data-name="Group 4">
        <path id="Path_6" data-name="Path 6" d="M274.457,107.493c5.643,0,13.169,2.414,19.406,12.811,11.645,19.406,10.351,36.378,7.116,51.827s-5.175,30.4-5.175,30.4h82.154l-.02.1a19.366,19.366,0,0,1-1.882,38.641h2.734a19.368,19.368,0,1,1,0,38.735h-4.966a19.369,19.369,0,0,1-7.487,37.233h-5.111a19.355,19.355,0,0,1-11.874,34.65H244.7s-16.079-4.549-27.169-10.813v-99.82c6.35-1.185,12.71-4.48,16.172-13.571,5.175-13.583,34.286-61.453,35.58-70.509s-3.194-47.869-3.194-47.869a19.728,19.728,0,0,1,8.369-1.814"/>
        <g id="Group_3" data-name="Group 3" clip-path="url(#clip-path-2)">
          <path id="Path_7" data-name="Path 7" d="M277.858,201.185c21.665,6.092,48.443-9.186,69.214-4.563,25.762,5.734,15.227,75.486,7.362,88.774-28.335,47.867-82.75,61.04-97.879,66.539-3.848,1.4-25.939,5.154-26.311,10.3-.438,6.036,28.912,10.728,32.639,11.329,31.978,5.159,65.078,9.311,97.24,3.388,30.618-5.638,49.073-19.374,60.41-48.053,9.956-25.185,9-52.592,7.784-79.231A141.651,141.651,0,0,0,396.8,168.009c-16.175-19.557-35.215-40.324-55.8-55.1-12.509-8.976-85.206-40.1-64.657-7.742,11.84,18.645,14.572,32.885,12.757,50.846C287.1,175.791,278.412,201.34,277.858,201.185Z" opacity="0.05"/>
        </g>
      </g>
    </g>
    <g id="Group_18" data-name="Group 18">
      <g id="Group_15" data-name="Group 15">
        <g id="Group_14" data-name="Group 14">
          <g id="Group_8" data-name="Group 8">
            <path id="Path_9" data-name="Path 9" d="M121.5,376.235A25.966,25.966,0,0,1,95.559,350.3V217.685A25.967,25.967,0,0,1,121.5,191.748h72.45a25.788,25.788,0,0,1,11.97,2.931c3.128-6.042,7.01-13.127,11.372-21.089,3.916-7.147,13.8-25.185,16.325-31.122,0-5.241-1.138-21.561-3.291-40.184A26.085,26.085,0,0,1,244.1,76.307a45.768,45.768,0,0,1,20.359-4.751c7.94,0,27.892,2.478,41.647,25.4,16.189,26.982,14.187,51.308,10.439,69.639h51.415a25.991,25.991,0,0,1,5.842.666A45.311,45.311,0,0,1,408.252,228.4a45.248,45.248,0,0,1-6.963,53.785,45.6,45.6,0,0,1,.355,5.685,45.124,45.124,0,0,1-16.993,35.369,45.357,45.357,0,0,1-45.3,44.586H234.7a25.9,25.9,0,0,1-7.072-.984c-.308-.087-4.941-1.4-11.193-3.63a25.955,25.955,0,0,1-22.488,13.023Z" fill="#fff"/>
          </g>
          <g id="Group_9" data-name="Group 9">
            <path id="Path_10" data-name="Path 10" d="M401.1,250.638a32.166,32.166,0,0,0-7.932-21.18A32.291,32.291,0,0,0,371.2,180.01a12.918,12.918,0,0,0-3.243-.413h-67.1c.761-4.505,1.7-9.647,2.78-14.815,3.581-17.1,5.349-37.744-8.685-61.134-9.968-16.611-23.388-19.091-30.5-19.092a32.655,32.655,0,0,0-14.35,3.279,12.939,12.939,0,0,0-6.871,12.957c2.03,17.56,3.794,39.222,3.273,44.273-1.41,4.823-11.661,23.53-17.82,34.772-7.772,14.183-14.482,26.433-17.075,33.243-1.178,3.091-2.613,4.345-4.731,5.025v-.42a12.937,12.937,0,0,0-12.937-12.937H121.5a12.937,12.937,0,0,0-12.937,12.937V350.3A12.938,12.938,0,0,0,121.5,363.235h72.45A12.938,12.938,0,0,0,206.883,350.3v-5.014a177.168,177.168,0,0,0,24.3,9.052,12.893,12.893,0,0,0,3.52.49H339.352a32.346,32.346,0,0,0,31.765-38.232A32.338,32.338,0,0,0,386.9,277.377,32.3,32.3,0,0,0,401.1,250.638Z" fill="#4a64b0"/>
          </g>
          <g id="Group_11" data-name="Group 11">
            <path id="Path_11" data-name="Path 11" d="M193.946,217.686V350.3H121.5V217.686h72.45" fill="#fff"/>
            <g id="Group_10" data-name="Group 10" clip-path="url(#clip-path-3)">
              <path id="Path_12" data-name="Path 12" d="M178.68,196.3c8.692,36.724,26.572,147.546-76.054,154s61.261,44.871,93.059,31.877S219.278,200.819,211.234,196.3,178.68,196.3,178.68,196.3Z" opacity="0.05"/>
            </g>
          </g>
          <g id="Group_13" data-name="Group 13">
            <path id="Path_14" data-name="Path 14" d="M264.457,97.493c5.643,0,13.169,2.414,19.406,12.811,11.645,19.406,10.351,36.378,7.116,51.827s-5.175,30.4-5.175,30.4h82.154l-.02.1a19.366,19.366,0,0,1-1.882,38.641h2.734a19.368,19.368,0,1,1,0,38.735h-4.966a19.369,19.369,0,0,1-7.487,37.233h-5.111a19.355,19.355,0,0,1-11.874,34.65H234.7s-16.079-4.549-27.169-10.813v-99.82c6.35-1.185,12.71-4.48,16.172-13.571,5.175-13.583,34.286-61.453,35.58-70.509s-3.194-47.869-3.194-47.869a19.728,19.728,0,0,1,8.369-1.814" fill="#fff"/>
            <g id="Group_12" data-name="Group 12" clip-path="url(#clip-path-4)">
              <path id="Path_15" data-name="Path 15" d="M267.858,191.185c21.665,6.092,48.443-9.186,69.214-4.563,25.762,5.734,15.227,75.486,7.362,88.774-28.335,47.867-82.75,61.04-97.879,66.539-3.849,1.4-25.939,5.154-26.311,10.3-.438,6.036,28.913,10.728,32.639,11.329,31.978,5.159,65.078,9.311,97.24,3.388,30.618-5.638,49.073-19.374,60.41-48.053,9.956-25.185,9-52.592,7.784-79.231A141.651,141.651,0,0,0,386.8,158.009c-16.175-19.557-35.215-40.324-55.8-55.1-12.509-8.976-85.206-40.1-64.657-7.742,11.84,18.645,14.572,32.885,12.757,50.846C277.1,165.791,268.412,191.34,267.858,191.185Z" opacity="0.05"/>
            </g>
          </g>
        </g>
      </g>
    </g>
  </g>
</svg>
