<svg xmlns="http://www.w3.org/2000/svg" xmlns:xlink="http://www.w3.org/1999/xlink" width="1417" height="1417" viewBox="0 0 1417 1417">
  <defs>
    <filter id="Rectangle_105" x="0" y="0" width="1417" height="1417" filterUnits="userSpaceOnUse">
      <feOffset dy="70" input="SourceAlpha"/>
      <feGaussianBlur stdDeviation="26" result="blur"/>
      <feFlood flood-color="#a196f0" flood-opacity="0.153"/>
      <feComposite operator="in" in2="blur"/>
      <feComposite in="SourceGraphic"/>
    </filter>
  </defs>
  <g id="Group_27" data-name="Group 27" transform="translate(-559.115 179.885)">
    <g transform="matrix(1, 0, 0, 1, 559.12, -179.88)" filter="url(#Rectangle_105)">
      <rect id="Rectangle_105-2" data-name="Rectangle 105" width="1261" height="1261" rx="305" transform="translate(78 8)" fill="#fff"/>
    </g>
    <g id="Group_26" data-name="Group 26" transform="translate(874.271 147.655)">
      <path id="Path_9" data-name="Path 9" d="M148.357,197.89c-6.964-9.671-7.35-22.437-7.35-49.517v-159c0-22.051-11.606-32.5-33.656-26.306-4.256,1.547-27.08,8.124-38.685,11.992-11.992,3.869-17.408,8.9-18.182,17.022C50.1-.953,52.8,4.077,62.862,18c6.963,9.671,7.35,22.437,7.35,49.517v80.852c0,27.08-.387,39.846-7.35,49.517C52.8,211.816,50.1,216.845,50.483,223.809c.774,8.124,6.189,11.606,18.182,11.606h74.276c11.993,0,17.408-3.482,17.8-11.606C161.509,216.845,158.415,211.816,148.357,197.89Zm208.127-8.511c-8.511-8.9-7.35-31.722-7.35-58.415v-7.737c0-56.48-29.788-80.465-83.173-80.465-32.882,0-72.341,6.964-83.56,36.364-6.577,16.635,3.095,29.014,13.54,32.882,17.022,5.8,32.109.387,39.459-23.211,4.642-14.7,15.474-17.8,26.693-16.248,15.474,2.321,16.635,19.343,16.635,41.006v5.416c-67.7,0-114.9,15.087-114.9,66.539,0,31.722,24.759,53.386,66.539,53.386,24.759,0,40.62-8.511,51.065-24.758,6.19,16.635,20.89,24.758,49.517,24.758,21.664,0,42.941-12.766,43.714-29.4C375.439,197.89,366.154,199.437,356.483,189.379ZM600.2,197.89c-6.964-9.671-7.35-22.437-7.35-49.517v-41.78c0-29.788-17.408-63.831-68.086-63.831-24.372,0-42.94,11.606-56.094,24.759-1.161-19.729-12.379-29.014-33.656-23.211-4.255,1.161-27.08,8.124-38.685,11.992-11.992,3.869-17.408,8.9-18.182,17.021-.387,6.963,2.321,11.992,12.379,25.919,6.963,9.671,7.737,23.985,7.737,50.291,0,25.919-.774,38.685-7.737,48.357-10.058,13.927-12.766,18.956-12.379,25.919.774,8.124,6.19,11.606,18.182,11.606H470.6c11.992,0,17.409-3.482,17.8-11.606.774-6.963-2.321-11.992-12.379-25.919-6.964-9.671-7.35-22.437-7.35-49.517V120.906c0-23.6,8.9-37.138,26.306-37.138,27.853,0,27.467,34.043,27.467,60.736v3.868c0,27.08-.387,39.846-7.35,49.517-10.058,13.927-13.153,18.956-12.766,25.919.774,8.124,6.19,11.606,18.182,11.606h74.276c11.992,0,17.408-3.482,18.182-11.606C613.353,216.845,610.258,211.816,600.2,197.89Zm228.243,0c-6.963-9.671-7.35-22.437-7.35-49.517v-159c0-22.051-11.606-32.5-33.656-26.306-4.256,1.547-27.08,8.124-38.685,11.992-11.993,3.869-17.408,8.9-18.182,17.022C730.182-.953,732.89,4.077,742.949,18c6.577,8.9,7.35,20.5,7.35,42.554-11.606-10.445-26.693-17.408-46.036-17.8-56.093-1.934-90.136,39.846-90.136,97.874s34.043,99.808,90.136,98.26a71.54,71.54,0,0,0,47.583-19.729c3.482,10.832,12.379,16.248,29.014,16.248h42.167c11.992,0,17.409-3.482,17.8-11.606C841.6,216.845,838.5,211.816,828.443,197.89Zm-106.771,1.934c-23.985,0-35.977-25.145-35.977-59.188s11.992-58.8,35.977-58.8c23.6,0,35.59,24.758,35.59,58.8S745.27,199.824,721.672,199.824Z" transform="translate(-50.448 374.183)" fill="#382b32" stroke="rgba(0,0,0,0)" stroke-miterlimit="10" stroke-width="1"/>
      <circle id="Ellipse_1" data-name="Ellipse 1" cx="31.295" cy="31.295" r="31.295" transform="translate(214.257 333.668)" fill="#382b32" stroke="rgba(0,0,0,0)" stroke-miterlimit="10" stroke-width="1"/>
      <path id="Path_2249" data-name="Path 2249" d="M258.131,55.909c-2.708-16.635-6.963-38.3-9.671-54.546-2.321-16.635-9.284-22.437-25.532-22.437H36.465c-16.248,0-23.211,5.8-25.919,22.437C7.838,17.61,3.969,39.274.874,55.909-1.06,67.9,5.516,74.864,15.575,74.864c17.8,0,26.306-18.956,34.043-33.269C55.034,31.15,66.252,15.676,92.945,15.676v147c0,27.08-.387,39.846-7.35,49.517-10.058,13.927-13.153,18.956-12.379,25.919.387,7.737,5.8,11.606,17.8,11.606h76.984c11.992,0,17.408-3.869,18.182-11.606.387-6.963-2.321-11.992-12.379-25.919-7.35-9.671-7.737-22.437-7.737-49.517v-147c26.693,0,37.912,15.474,43.714,25.919,7.35,14.313,16.248,33.269,34.043,33.269C253.876,74.864,260.065,67.9,258.131,55.909ZM361.421,212.2c-6.963-9.671-7.35-22.437-7.35-49.517V84.536c0-21.664-11.606-32.109-33.656-25.919-4.255,1.161-27.08,8.124-39.072,11.992-11.606,3.869-17.408,8.9-17.8,17.021-.774,6.963,2.321,11.992,12.379,25.919,6.963,9.671,7.35,22.438,7.35,49.13,0,27.08-.387,39.846-7.35,49.517-10.058,13.927-13.153,18.956-12.379,25.919.387,8.124,5.8,11.606,17.8,11.606H356c11.606,0,17.021-3.482,17.8-11.606C374.187,231.153,371.479,226.124,361.421,212.2ZM313.064,40.434c24.372,0,44.1-17.8,44.1-40.233,0-22.051-19.729-39.846-44.1-39.846-23.985,0-43.714,17.8-43.714,39.846C269.35,22.639,289.079,40.434,313.064,40.434ZM589.277,212.2c-6.963-9.671-7.35-22.437-7.35-49.517v-159c0-22.051-11.606-32.5-33.656-26.306-4.255,1.547-27.08,8.124-38.685,11.992-11.992,3.869-17.408,8.9-18.182,17.022-.387,6.963,2.321,11.992,12.379,25.919,6.577,8.9,7.35,20.5,7.35,42.554-11.605-10.445-26.693-17.408-46.035-17.8C409,55.135,374.961,96.915,374.961,154.943S409,254.751,465.1,253.2a71.539,71.539,0,0,0,47.583-19.729c3.482,10.832,12.379,16.248,29.014,16.248h42.167c11.992,0,17.408-3.482,17.8-11.606C602.43,231.153,599.335,226.124,589.277,212.2Zm-106.771,1.934c-23.985,0-35.977-25.145-35.977-59.188s11.992-58.8,35.977-58.8c23.6,0,35.59,24.758,35.59,58.8S506.1,214.131,482.505,214.131ZM776.9,192.467c-31.335,30.561-95.939,22.824-105.224-26.693h95.553c24.759,0,29.4-10.058,26.693-35.977-3.095-31.722-30.174-71.181-87.042-72.728C648.852,54.748,597.4,91.112,599.335,157.651c2.321,64.991,55.707,95.552,109.479,95.552,45.649,0,71.955-22.437,83.56-48.743C798.951,190.146,788.119,181.636,776.9,192.467ZM701.077,88.4c21.664-1.934,28.24,13.927,30.948,25.145,3.095,11.606-1.161,18.182-10.445,18.182H676.319c-3.482,0-5.416-3.868-4.255-8.124C675.545,107.36,683.669,89.565,701.077,88.4Z" transform="translate(-0.537 39.644)" fill="#382b32" stroke="rgba(0,0,0,0)" stroke-miterlimit="10" stroke-width="1"/>
    </g>
  </g>
</svg>
